/* XPM */
static char * toolbar_cookie_xpm[] = {
"24 24 5 1",
"b c None",
". c #000000000000",
"c c #FFFF00000000",
"e c #33336666FFFF",
"f c #FFFFFFFFFFFF",
"bbbbbbbbbb..bb..bbbbbbbb",
"bbbbbbbbb.ffb.ff.bbbbbbb",
"bbbbbbbb.ff..f..f.bbbbbb",
"bbbbbbbb.f...f..f.bbbbbb",
"bbbbb.eee.ffe.ff.ee.bbbb",
"bbbb..eeee..ee..eeee..bb",
"bbbbeeeeeeeeeeeeeeeee.bb",
"bbb.eeeeeeeeeeeeeeeeee.b",
"bb.eeeeeeeeeeeeeee..eee.",
"bbbeee..e.ee.ee.e.eeee.b",
"bbb.eeee.e..e..e.eeeee.b",
"bbbbeeeeeeeeeeeeeeeee.bb",
"bbb.eeeeeeeeeeeeeeeeee.b",
"bbbb.eeeeeeeeeeeeeeeee.b",
"bbb.eeeeeeeeeeeeeeeeeebb",
"bbbbeeeeeeee....eeeeee.b",
"bbb.eeeeeee.cccceeeeeebb",
"bbb.eee.ee.cc..c.eeeeebb",
"bbe.eee...ccccccc.eeee.b",
"bb.eeee.e...c.ccc.eeeee.",
"b.eeee.eeeee..cc..eeeeee",
"b..ee.eeee..ee.c.eeeeee.",
".eee..eeeeee....eeeeeee.",
"b.e.e.eee...e...eeeeeeee"};
