/* XPM */
static char * cookie_large_xpm[] = {
"33 32 7 1",
". c #000000000000",
"# c #000000009999",
"a c #808080808080",
"c c #ffff00000000",
"d c #00000000ffff",
"e c #0000ffffffff",
"f c #ffffffffffff",
"fffffffffffff...fff...fffffffffff",
"fffffffffffff...fff...fffffffffff",
"ffffffffffff.fff.f.fff.ffffffffff",
"fffffffffff.fffff.f..ff.fffffffff",
"fffffffffff.ff..f.f..ff.fffffffff",
"fffffffff...ff..f.fffff...fffffff",
"fffffff..ded.fff.d.fff.ded.ffffff",
"ffffff..deded...ded...deded..ffff",
"fffff.ddedededededededededed.ffff",
"ffff..dededededededededededed.fff",
"ffff.de.ededededededededede.e..ff",
"fff.dede.edededededededed..eded.f",
"fff.edede..d.dede.ed.de..dede..ff",
"ffff..deded.d....d..d..ededede..f",
"fff..dededededededededededede..ff",
"fffff.dedededededededededede..fff",
"ffff.dedededededededededededed.ff",
"ffff.e.ededededededededededed.#.f",
"fffff.edededededededededededed.ff",
"ffff.edededededededededededed.fff",
"fffff.ededededed.....dedededed..f",
"ffff.ededededed.ccccc.dededed.fff",
"ffff..eded.ded.ccc.acc.dedede.fff",
"fff.deded.d.d.cccc..c.c.dedede.ff",
"ff.d.deded.d..cc.cccccc.ededed..f",
"fff.dedede.e....cc.cccc.dededed.f",
"ff.dedede.ededed...cc.a.edede.ed.",
"fff..ede.edededede..c...dedede..f",
"ff..ede.edede....de.cc.dededede.f",
"..ded...dedededed..a..dddedede...",
"ff.d..e.eded.....d...##dedededed.",
"..dededededededede...#dedededed.f"};
