/* XPM */
static char *encrypt_xpm[] = {
"32 30 4 1",
" 	c None",
".	c #000000000000",
"X	c #666666666666",
"O	c #FFFFCCCC9999",
"                                ",
"                                ",
"       ....                     ",
"       XOO....                  ",
"       XO.OOO...                ",
"       XO.....O....             ",
"       XOXXXOOOOOO...           ",
"       XOOOOO..X.OOO...         ",
"       XO...........OOO.        ",
"       XOOOOOOOOOOOOOOOOX       ",
"       XO..........O..XOX       ",
"       XOXOXOX..XOO..OOOXX      ",
"       XOOOOOOOOOOOOOOOOOX      ",
"       XO......OO......OO.      ",
"       XOXO..X....XX.XXOOX      ",
"       XOOOOOOOOOOOOOOOOOX      ",
"       XOXXXOXX..XO.....O.      ",
"       XOXXXXXXOO...XO..OX      ",
"       XOOOOOOOOOOOOOOOOO.      ",
"       XOOXXXXOXOOXOOOOOOX      ",
"       XOOXXXXXOOXXOOOOOO.      ",
"       XOOOOOOOOOOOOOOOOO.      ",
"       XO.........OO...OOX      ",
"       XOOOO..OOO....OOOOX      ",
"       XOOOOOOOOOOOOOOOOO.      ",
"       XOOOOOOOOOOOOOOOOOX      ",
"       XXXXXXXXXXXXXXXXXXX      ",
"                                ",
"                                ",
"                                "
};
