/* XPM */
static char *s_icon2[] = {
/* width height num_colors chars_per_pixel */
"    32    32       13            1",
/* colors */
". c None",
"# c #78706b",
"a c #5a5357",
"b c #717fca",
"c c #2a218b",
"d c #929ed3",
"e c #311fb3",
"f c #6f76a0",
"g c #9f8762",
"h c #25244a",
"i c #29256f",
"j c #51518c",
"k c #4b51b1",
/* pixels */
"................................",
"................................",
".........................fijd...",
"........................aiiiid..",
"........fjccjijcjcjcjjjkjhcfif..",
"......ficiiihihihihihhiiiiiiif..",
".....fciifd.............ahhihd..",
"....diij.................fhad...",
"....fcj.........................",
"....icd......dd##jfd............",
"....ij......##a##jcck...........",
"....ij.....j##gg#fcccj..........",
"....fkf...aiigggjkkeccj.........",
".....ik..dhicjf##fkk#fjd........",
".....difffhicccceekj##af........",
".......fjhhiicceeeee###a........",
".........hhicccceeecj##i........",
".........hhiiccccecccagijb......",
".........fhiiccccccccj#ffifd....",
".........dhhiccccccccajd.dik....",
"..........ahiicccccccjj...fjf...",
"...........ahhiiicciij.....ie...",
"............jhhhiiihj......ij...",
".............dfhhhfd......dic...",
"..........................jcf...",
"....daif.................jiid...",
"...dhiiij.............dficcf....",
"...fhikijjciciiciicjcjcjcif.....",
"...fiijijjicicijijiiccijf.......",
"...dhiiii.......................",
"....dahf........................",
"................................"
};
