/* XPM */
static char *s_icon_1[] = {
/* width height num_colors chars_per_pixel */
"    32    32       13            1",
/* colors */
". c None",
"# c #78706b",
"a c #5a5357",
"b c #717fca",
"c c #2a218b",
"d c #929ed3",
"e c #311fb3",
"f c #6f76a0",
"g c #9f8762",
"h c #25244a",
"i c #29256f",
"j c #51518c",
"k c #4b51b1",
/* pixels */
"................................",
"................................",
".........................hii....",
"........................hhiii...",
"........iccjkjkjjkkkkkbbhijji...",
"......iciihhhhhhhhhhhhhhhhhii...",
".....icii...............hhhhh...",
"....cji...................h.....",
"....ic..........................",
"....ii.......jjjkcc.............",
"....ii......aa##kcccc...........",
"....ic.....a####cccccc..........",
"....ib....iagg#kkeecccc.........",
".....ij..hha#gjfkekffcc.........",
"......ibfhiccjjjbf####a.........",
"........ihiiccceek####ai........",
".........hhiccceek####ai........",
".........hhiiccccccjg#cijj......",
".........hhiiccccccjg#i..ik.....",
"..........hhiiccccccgji...ic....",
"..........hhiicccccc#i....ib....",
"...........hhhiiiiiic......jc...",
"............hhhhihhi.......cc...",
"...............hhh........ijc...",
"..........................ij....",
"....hhii.................iji....",
"...hiiiii.............iiiki.....",
"...hijbiiccccccccjkjjkkjii......",
"...ihiiihiiiiiiiiiihccc.........",
"....hihh........................",
".....hh.........................",
"................................"
};
