/* XPM */
static char *s_icon24[] = {
/* width height num_colors chars_per_pixel */
"    32    32       14            1",
/* colors */
". c None",
"# c #78706b",
"a c #5a5357",
"b c #717fca",
"c c #2a218b",
"d c #929ed3",
"e c #999999",
"f c #311fb3",
"g c #6f76a0",
"h c #9f8762",
"i c #25244a",
"j c #29256f",
"k c #51518c",
"l c #4b51b1",
/* pixels */
"................................",
"................................",
".........................gjkd...",
"........................kijjjd..",
"........gkccckckckckcklkjijbjg..",
"......gjcjjjijiijijijiijiijjjg..",
".....gcjigd.............kiijie..",
"....djjk.................gike...",
"....gck.........................",
"....jkd......deccce.............",
"....jc......g#kcccjae...........",
"....jl.....#a#lccccc#h..........",
"....gkg...#a#kcccccck#e.........",
".....jld.d###cccccccckj.........",
".....dkgd###llccflfccccg........",
".......ggkaalklkeebkcccj........",
".........iiccc######kcck........",
".........iijcck#####accjgb......",
".........gijjcc##hh#cccgdjgd....",
".........diijjjckh#kcjjd.djl....",
"..........kiijjcj#hkjjk...gkg...",
"...........kiijjjagjjk.....cc...",
"............kiiijikjk......jk...",
".............egiiige......djc...",
"..........................kjg...",
"....dajg.................kjcd...",
"...dijjjk.............dgjccg....",
"...gijgjjjjjjjjjjjjjkckckjg.....",
"...gjjkjjjjcjjckjkjkjjikg.......",
"...dijjjk.......................",
"....ekig........................",
"................................"
};
