/* XPM */
static char *s_icon18[] = {
/* width height num_colors chars_per_pixel */
"    32    32       16            1",
/* colors */
". c None",
"# c #78706b",
"a c #a3b1d7",
"b c #5a5357",
"c c #717fca",
"d c #2a218b",
"e c #b5c0d1",
"f c #cde1f9",
"g c #929ed3",
"h c #999999",
"i c #6f76a0",
"j c #9f8762",
"k c #25244a",
"l c #29256f",
"m c #51518c",
"n c #4b51b1",
/* pixels */
"................................",
"................................",
".........................ilmgee.",
"........................bklllge.",
"........imddmlmlmdmdmdmmlldclie.",
"......illdlklklklklklklkkkllli..",
".....idlkige............mkkkkge.",
"....gllm.e.............e.ikmh...",
"...eimm..e...............ee.....",
"....ldg.e....ah#jjheee..........",
"....dm......ib###jjjj...........",
"....ig.....mm##ijjh#hi..........",
"....gf....ml#mi##jjmlmm.........",
".....a.a.glb#jjjjjhmdddge.......",
".....amng#lmjjjjjjj#dddi........",
".....e.idllbjjjjjjjmdddl........",
".........klb####jjjmdddd........",
".........kkdbdd#jjjm#ddlmce.....",
".........iklllldjjjmmdliilc.....",
".........gklllld#jjmddlgeahfe...",
".........emklllldm#ddlm.e.gf..e.",
".........e.mkklllllllm.e...cg.e.",
"...........emkklllllm......lie..",
"............egikkkih..e...gmde..",
".............e............mli...",
"....gblie................mlla...",
"...gklllm.e...........gilldi....",
"...iklmlllllllllllmlmdmdmdi.....",
"...illmllldllmlmlmlmlklmi.......",
"...gklllm......e................",
"..eegmkie.......................",
"....eee........................."
};
