/* XPM */
static char *s_icon21[] = {
/* width height num_colors chars_per_pixel */
"    32    32       16            1",
/* colors */
". c None",
"# c #78706b",
"a c #a3b1d7",
"b c #5a5357",
"c c #717fca",
"d c #2a218b",
"e c #cde1f9",
"f c #929ed3",
"g c #999999",
"h c #311fb3",
"i c #6f76a0",
"j c #9f8762",
"k c #25244a",
"l c #29256f",
"m c #51518c",
"n c #4b51b1",
/* pixels */
"................................",
"................................",
".........................ilmf...",
"........................mklllf..",
"........imddmlmdmdmdmmmmlkmnli..",
"......ildllklkkklklklklkkkllli..",
".....idlkif.............mkkkkf..",
"....fdlm.................ikmg...",
"....idm.........................",
"....lmg......fgm#jga............",
"....ld......mddi#mm#j...........",
"....ln.....#dddm#jjjjg..........",
"....imi...#mddddjjjjjj#.........",
".....dia.flldddmjjjj#j#f........",
".....fc..illdddhijjm#j#i........",
"........flllddddhnhdmj#b........",
".........kllddddhhhdd#jb........",
".........lkmmmddddddd##mfe......",
".........ibbbb#ldddddmbiaaff....",
".........gkbbbbmddddddlf.amm....",
"..........mkbbblddddllm...mmc...",
"...........bkbbldldldm.....md...",
"............mkbbllllm......kd...",
".............giklkif......fld...",
"..........................mli...",
"....fmki.................mllf...",
"...fkkllm.............filldi....",
"...ikdmllllllllklllmlmdmlli.....",
"...illmllllllmlmlmllllkmi.......",
"...fklllm.......................",
"....gmki........................",
"................................"
};
