/* XPM */
static char *s_icon11[] = {
/* width height num_colors chars_per_pixel */
"    32    32       17            1",
/* colors */
". c None",
"# c #78706b",
"a c #a3b1d7",
"b c #5a5357",
"c c #717fca",
"d c #2a218b",
"e c #b5c0d1",
"f c #cde1f9",
"g c #929ed3",
"h c #999999",
"i c #311fb3",
"j c #6f76a0",
"k c #9f8762",
"l c #25244a",
"m c #29256f",
"n c #51518c",
"o c #4b51b1",
/* pixels */
"................................",
"................................",
".........................jmngee.",
"........................bmmmmge.",
"........af..gcdnmndndnoommnjmja.",
"......gcg..gjdmmlmlmlmllllmmmj..",
".....jnojgge.eee........bllmlgee",
"....gmmnae...............jlbha..",
"...ejdn..................a......",
"...emnga.....ah#nnjgee..........",
"....md......####ommmna..........",
"....mn.....##k#jommmmn..........",
"....joje..##kkjjiddddmne........",
"....emoaea#kk##oddddddmge.......",
".....gnjch####ooiiiddddj........",
".....aejnl####ooooioiidm........",
".......a.lbmijo#jocjoddd........",
".........lmmmjjjoojjjodmnce.....",
".........jmmmmdndokkk#ijjnna....",
".........hlmmmmmokkkkmmgagdoe...",
"..........bmmmmmm#nnldn...jnj...",
"...........nlmmmmmmmmn.....dd...",
"..........a.bllmmmmmne.....mn...",
".............gjllljha.....gmde..",
".............a....e.......nnj...",
"....gnlje................nmmg...",
"...glmmmna............aaojojee..",
"...jlmjmmmdmdmdmnddjc.ffacj.....",
"...jmmommmdmdndnmndocae.ae......",
"...glmmlnae...e...ee.e..e.......",
"..eegblja.......................",
"....a.a.e......................."
};
