/* XPM */
static char *s_icon22[] = {
/* width height num_colors chars_per_pixel */
"    32    32       17            1",
/* colors */
". c None",
"# c #78706b",
"a c #a3b1d7",
"b c #5a5357",
"c c #717fca",
"d c #2a218b",
"e c #b5c0d1",
"f c #cde1f9",
"g c #929ed3",
"h c #999999",
"i c #311fb3",
"j c #6f76a0",
"k c #9f8762",
"l c #25244a",
"m c #29256f",
"n c #51518c",
"o c #4b51b1",
/* pixels */
"................................",
"................................",
".........................jmngee.",
"........................nlmmmge.",
"........jndddnmndndndnnnmmmjmje.",
"......jmddmmlmmlmlmlmlmlllmmmj..",
".....jdmljge.e..........nlmmlge.",
"....gdmn.e.............e.jlbh...",
"...ejdn..................e......",
"....mdg......ajnjbha............",
"....mn......jbddnn##hee.........",
"....mn..e..#nddddnkkkk..........",
"....joj...#bddddi#kkkkh.e.......",
"...e.dng.abdmddddokk###g........",
".....gmgahmmmdddiiondn#h........",
".......a.#mdmdddiiidddb#........",
".........lmdnnodiiddddb#........",
".........lmbbb#j#dddddnjfaee....",
".........jlmbbb#bndddddjajog....",
".........glmbbb##dddddmh.gmoe...",
"........eenlmb##bddddmn.e.jnj...",
"..........enlmb#nmmmmn.....dd...",
"...........ebllbmmmmn.e....mn...",
".............gjllmjh......gmd...",
"..........................nmj...",
"....gnlje................nmdg...",
"...glmmmn.............gjmmdj....",
"...jlmnmmmmmmmmmmmmndndndmj.....",
"...jmmnmmmmdmmdnmnmmmmlnj.......",
"...glmmmn.......................",
"..eegblj.e......................",
"................................"
};
