/* XPM */
static char *s_icon20[] = {
/* width height num_colors chars_per_pixel */
"    32    32       17            1",
/* colors */
". c None",
"# c #78706b",
"a c #a3b1d7",
"b c #5a5357",
"c c #717fca",
"d c #2a218b",
"e c #b5c0d1",
"f c #cde1f9",
"g c #929ed3",
"h c #999999",
"i c #311fb3",
"j c #6f76a0",
"k c #9f8762",
"l c #25244a",
"m c #29256f",
"n c #51518c",
"o c #4b51b1",
/* pixels */
"................................",
"................................",
".........................jmngee.",
"........................nlmmmge.",
"........jnddnmnmndndndnnmmdcmje.",
"......jdddmmlmlmlmlmlmmlllmmmje.",
".....jdmljh.............nllllge.",
"....gmdnee.............eejlnhe..",
"...ejnnee................eee....",
"....mmgee....gh#k#ha............",
"...edde.....nnn####kk...........",
"....mn.....ndd#n#jkk#hee........",
"....joh.e.nmddnkkkkkkbo.........",
".....og..gmmddkkkkkkkkngee......",
".....ae.gjlddd#kkkk#kkdje.......",
".......gjllmddn#hojkk#nde.......",
".........lmmmdddiii#kknme.......",
".........lmdddddiddnkknmja......",
".........jlbmmddddddk#mjga......",
".........hlbbbddddddnnmgeejj....",
"..........nlbbdmddddmmnee.coj...",
"...........#bbmmmddmmn.....mn...",
"............nbllmmmlnee....mn...",
".............hjlmljgee....gmnee.",
"..................eee.....nmj...",
"....gnlje................nmdg...",
"...glldmne............gjmddje...",
"...jldjmmmmmmmmmmmnmndndnmje....",
"...jmmnmmmdmmnmnnmnmmmlnj.......",
"...glmmmne...e.ee......e........",
"..eegbljee....e.e...............",
"....eeee........................"
};
