/* XPM */
static char *s_icon16[] = {
/* width height num_colors chars_per_pixel */
"    32    32       17            1",
/* colors */
". c None",
"# c #78706b",
"a c #a3b1d7",
"b c #5a5357",
"c c #717fca",
"d c #2a218b",
"e c #b5c0d1",
"f c #cde1f9",
"g c #929ed3",
"h c #999999",
"i c #311fb3",
"j c #6f76a0",
"k c #9f8762",
"l c #25244a",
"m c #29256f",
"n c #51518c",
"o c #4b51b1",
/* pixels */
"................................",
"................................",
".........................jlng...",
"........................blmmmg..",
"........jnddnmndndndndnnmldcmj..",
"......jmmdmlmmllmlmlmlmllmlmmje.",
".....jdmljg.............nllmlh..",
"....andb.................jlbg...",
"....ajj.........................",
"....gaa......ah#kkhe............",
".....f......###kkkkk#...........",
"....a......#b#hkkkkk#j..........",
"....gjg...#b#kkkk#kjnnc.........",
".....dng.abbn#khnionijng........",
".....gnjhj##k#k#oiiiddjh........",
".......jdb##kkk#oiiddddd........",
".........b##k#k#iiiiddmd........",
".........l#bb##ndiidddmmnc......",
".........jlbb###ondidddjjnna....",
".........hlmbb##nbddddmg.hdo....",
"..........nlm###mddmdmn...ccg...",
"...........blmb#mddmmn.....a....",
"............nllmlmmmn.......f...",
".............hjllljh......ag....",
"..........................jcg...",
"....gbmj.................nmng...",
"...glmmmn.............gjmmdj....",
"...jlmjdlmmmmmmmmmnmndndnmc.....",
"...jlmnmldmmdnmnmnmnlmlnj.......",
"...glmlmn.......................",
"....gblj........................",
"................................"
};
