/* XPM */
static char *s_icon14[] = {
/* width height num_colors chars_per_pixel */
"    32    32       17            1",
/* colors */
". c None",
"# c #78706b",
"a c #a3b1d7",
"b c #5a5357",
"c c #717fca",
"d c #2a218b",
"e c #b5c0d1",
"f c #cde1f9",
"g c #929ed3",
"h c #999999",
"i c #311fb3",
"j c #6f76a0",
"k c #9f8762",
"l c #25244a",
"m c #29256f",
"n c #51518c",
"o c #4b51b1",
/* pixels */
"................................",
"................................",
".........................jmngee.",
"........................blmmmge.",
"........gndddndndndndnonmmmjmje.",
"......ajdmmlmllmlmlmlmllllmmmje.",
".....agcnjge............nllllge.",
"....ef.gaee............eejlnhe..",
"....afeee................eee....",
"....cga......gh###hgee..........",
"....no......###kkk#on...........",
"...emoee...##kkkkk##dne.........",
"....joj.e.###kkkkk#cddn.........",
"...eemog.ab#kkkkjj#joddg........",
".....gmjgjb##njkoicjnjnhe.......",
".......jdbb##ddooiijjoo#a.......",
".........b##nddiiiiddd##........",
".........bb##ddddddddnk#nce.....",
".........jbbbddddddddnbhjmjaee..",
".........glbbddddddddmmg.gmoe...",
".........ebbbbbdmddddmnee.jnj...",
"...........nbmmmmmdmmne....mi...",
"............blmlmmmmne.....nj...",
".............gjllljgee....agge..",
".............e....eee.....a.....",
"....gbmje................h.f....",
"...glmmmne............gjncga....",
"...jlmjmmmdmdmdmdddmndndjoa.....",
"...jmmnmmmmmmmmmmbmbmmlnc.......",
"...glmmmneeee...................",
"..eegbljee......................",
"....eeeee......................."
};
