/* XPM */
static char *s_icon23[] = {
/* width height num_colors chars_per_pixel */
"    32    32       15            1",
/* colors */
". c None",
"# c #78706b",
"a c #a3b1d7",
"b c #5a5357",
"c c #717fca",
"d c #2a218b",
"e c #929ed3",
"f c #999999",
"g c #311fb3",
"h c #6f76a0",
"i c #9f8762",
"j c #25244a",
"k c #29256f",
"l c #51518c",
"m c #4b51b1",
/* pixels */
"................................",
"................................",
".........................hkle...",
"........................ljkkke..",
"........hldddldldldldlllkjdhkh..",
"......hkdkkkjjjkjkjkjkjkjjkkkh..",
".....hdkjhe.............ljjjje..",
"....ekkl.................hjlf...",
"....hdl.........................",
"....kde......afddlfa............",
"....kl......hldddk##i...........",
"....kl.....#blddgdliif..........",
"....hmh...#bldddddd#iii.........",
".....kma.ebbddddddddhlba........",
".....ekhafblkdddgggdddkf........",
".......ce#bdddmgmggdddd#........",
".........jkllb##hhhdddd#........",
".........jkkkbbb#ilddddhee......",
".........hjklbbb###dddkhflme....",
".........ejkkkbii#ldddke.edl....",
"..........ljkkdbi#dkdkl...hlh...",
"...........ljkkk##kkkl.....dd...",
"............bjjkblkkl......km...",
".............ehjjjhea.....ekk...",
"..........................ldh...",
"....ebkh.................lkde...",
"...ejkkkl.............ehkddh....",
"...hjkhkkkkkkkkkkkkkldldldh.....",
"...hkdlkkkkdkkdldldbdjklh.......",
"...ejkkkl.......................",
"....fljha.......................",
"................................"
};
