/* XPM */
static char *s_icon25[] = {
/* width height num_colors chars_per_pixel */
"    32    32       14            1",
/* colors */
". c None",
"# c #78706b",
"a c #5a5357",
"b c #717fca",
"c c #2a218b",
"d c #929ed3",
"e c #999999",
"f c #311fb3",
"g c #6f76a0",
"h c #9f8762",
"i c #25244a",
"j c #29256f",
"k c #51518c",
"l c #4b51b1",
/* pixels */
"................................",
"................................",
".........................gjkd...",
"........................kijjjd..",
"........gkcckckckckckckkjjjbjg..",
"......gjcjjijiijijijijjiiijjjg..",
".....gcjigd.............kiiiid..",
"....djjk.................gike...",
"....gck.........................",
"....jkd......ddjccg.............",
"....jc......#g#klccjg...........",
"....jk.....#a##cccccc#..........",
"....glg...ga##kccccccc#.........",
".....jld.ej##gglfccccccd........",
".....dkkbgi##klflggglccg........",
".......gkijcackl#h####cj........",
".........iijcccfk####ajj........",
".........ijjcccfk##h#kjjgb......",
".........gijjcccck#hhkcggjld....",
".........diijcccccah#cjd.djl....",
"..........kijjjcccjhkjk...gkg...",
"...........kijjjjjjgck.....kc...",
"............kiijjjjjk......jf...",
".............egiiige......djj...",
"..........................kcg...",
"....dkig.................kjcd...",
"...dijjjk.............dgjckg....",
"...gijgcjjjjjjjjjjjkckckcjg.....",
"...gjjkjjjjcjkjkjkjkjjikg.......",
"...dijjjk.......................",
"....daig........................",
"................................"
};
