/* XPM */
static char *s_icon1[] = {
/* width height num_colors chars_per_pixel */
"    32    32       14            1",
/* colors */
". c #25244a",
"# c #29256f",
"a c #2a218b",
"b c #311fb3",
"c c #4b51b1",
"d c #51518c",
"e c #5a5357",
"f c #6f76a0",
"g c #717fca",
"h c #78706b",
"i c #929ed3",
"j c #9f8762",
"k c None",
"l c #ffff00",
/* pixels */
"kkkkkkkkkkkkkkkkkkkkkkkkkkkkkkkk",
"kkkkkkkkkkkkkkkkkkkkkkkkkkkkkkkk",
"kkkkkkkkkkkkkkkkkkkkkkkkkf.dikkk",
"kkkkkkkkkkkkkkkkkkkkkkkkd.###ikk",
"kkkkkkkkfdaadadadadadadc..ag#fkk",
"kkkkkkfaaa#.#.#..#.#.#.#..###fkk",
"kkkkkfaa.fikkkkkkkkkkkkkd....ikk",
"kkkki#adkkkkkkkkkkkkkkkkkf.dikkk",
"kkkkfddkkkkkkkkkkkkkkkkkkkkkkkkk",
"kkkk#aikkkkkkiiddcfikkkkkkkkkkkk",
"kkkka#kkkkkkhehhdaaackkkkkkkkkkk",
"kkkk#ckkkkkhhhhhdaaaadkkkkkkkkkk",
"kkkkljfkkkljhljhcbalj#dkllllkkkk",
"kkkkljdkkkljjllfcclljaeljlkllkkk",
"kkkkll#fgjlj#llljllljhjlkkkklkkk",
"kkkkllkfdll.aljllljljjllkkkkkkkk",
"kkkkkljkklj.aljdlldljhejllllkkkk",
"kkkkkllkjlj.#lj#lhallhh#jjjllkkk",
"kkkkkjlkll..#lj#ljaljjhjfdfilkkk",
"kkkkkklllj..#lh#aaalldjlkgdjlkkk",
"kkkkkkkllkd.#lj#aaaljddlllllikkk",
"kkkkkkkjkkkd.je##a#jhdkkjlke#kkk",
"kkkkkkkkkkkke...##..dkkkkkk.ckkk",
"kkkkkkkkkkkkkff...fikkkkkki#akkk",
"kkkkkkkkkkkkkkkkkkkkkkkkkkddfkkk",
"kkkkie#fkkkkkkkkkkkkkkkkkd#aikkk",
"kkki.###dkkkkkkkkkkkkkif#aafkkkk",
"kkkf.#f#.aaaa#aaa#d#d#dad#fkkkkk",
"kkkf.ad##a#a#d#d#d#d#aadfkkkkkkk",
"kkki.#.#ekkkkkkkkkkkkkkkkkkkkkkk",
"kkkkie.fkkkkkkkkkkkkkkkkkkkkkkkk",
"kkkkkkkkkkkkkkkkkkkkkkkkkkkkkkkk"
};
