/* XPM */
static char *s_icon19[] = {
/* width height num_colors chars_per_pixel */
"    32    32       16            1",
/* colors */
". c None",
"# c #78706b",
"a c #a3b1d7",
"b c #5a5357",
"c c #717fca",
"d c #2a218b",
"e c #b5c0d1",
"f c #cde1f9",
"g c #929ed3",
"h c #999999",
"i c #6f76a0",
"j c #9f8762",
"k c #25244a",
"l c #29256f",
"m c #51518c",
"n c #4b51b1",
/* pixels */
"................................",
"................................",
".........................ilmgee.",
"........................bllllge.",
"........imddmlmlmdmdmdmnlldilie.",
"......ildlllklklklklklklkkllli..",
".....idlkige............bkklkge.",
"....gllm.e...............ikbh...",
"...eimm..e......................",
"....ldg.e....ah#j#heee..........",
"...elde.....mm####jjh...........",
"....lm.....mmm#mi#jj#ie.........",
"....gca...mllj#jjjj#ilnee.......",
"...eeaf..glldjjjjjjjjddge.......",
".....aahc#llmjjjjjjj#ddi........",
".......imlllmjjjjjjj#ddd........",
".........klllm#mnjjjjmdd........",
"........eklllddddmjj#mdlmg.e....",
".........iklllddddjj#dliii......",
".........gkbllddldmjmdlgeaa.....",
"........eebbllldldldldme..gcg...",
"...........#lllllllllme....mme..",
"............bklkllllm.....elm...",
".............gikkkih......gdm.e.",
"..........................mdi...",
"....gblie................mldh...",
"...gklllm.e...........gildmi....",
"...#llilllllllllllmlmdmdmli.....",
"...illmllldlmlmlmlmlllkmi.......",
"...gklllm..e.e.....e............",
"..e.gbkie...e...................",
"................................"
};
