/* XPM */
static char *s_icon15[] = {
/* width height num_colors chars_per_pixel */
"    32    32       17            1",
/* colors */
". c None",
"# c #78706b",
"a c #a3b1d7",
"b c #5a5357",
"c c #717fca",
"d c #2a218b",
"e c #b5c0d1",
"f c #cde1f9",
"g c #929ed3",
"h c #999999",
"i c #311fb3",
"j c #6f76a0",
"k c #9f8762",
"l c #25244a",
"m c #29256f",
"n c #51518c",
"o c #4b51b1",
/* pixels */
"................................",
"................................",
".........................jmngee.",
"........................blmmmge.",
"........jnddnmnmndndnnnnmldcmje.",
"......jmdmmlmmlmlmlmlmllllmmmje.",
".....cnmljge........e...nllllh..",
"....ecjn.ee.............ejlbgee.",
"...eafgee................ee.a...",
".....fae.....gh###hae...........",
"....gg......#b#kkkk##...........",
"...ejj.....#bkkkkkk#jn..........",
"...ejoj.e.#b#kkkkk##nnn.........",
".....mjg.abbk#j##kiojnnge.......",
".....gmjhj#n#k#iocoinjnh.e......",
"....e..jnb####oiiiiidnin........",
".......e.b###kndiiidddd#........",
".........bb###ddiidddmnbnce.....",
"........ejbbb#ddiiddddmjjmjaee..",
"........eglbbbnbdddddmmgegmoe...",
"........eemlb#nmddmddmne.ejnj...",
"...........bl#bmdmmdmne....nc...",
"............nllmmmmmne.....ca...",
".............hjllljhe.....af....",
"..................e.......c.fee.",
"....gblje................njgae..",
"...glmmmnee...........gjmnnge...",
"...jlmjmmmmmmmmmmmnmndndndgee...",
"...jlmnmlmmmmbmmbmbmmlmnj.ee....",
"...glmmlnee................e....",
"..eegblje.......................",
"....eee........................."
};
