/* XPM */
static char *s_icon5[] = {
/* width height num_colors chars_per_pixel */
"    32    32       15            1",
/* colors */
". c None",
"# c #78706b",
"a c #a3b1d7",
"b c #5a5357",
"c c #717fca",
"d c #2a218b",
"e c #cde1f9",
"f c #929ed3",
"g c #311fb3",
"h c #6f76a0",
"i c #9f8762",
"j c #25244a",
"k c #29256f",
"l c #51518c",
"m c #4b51b1",
/* pixels */
"................................",
"................................",
".........................hklf...",
"........................lkkkkf..",
"........hlddlklkldhceeealjdckh..",
"......hkkdkkkjkkkjdccafckjkkkh..",
".....hdkkhf.............ljjjkf..",
"....fkkl.................hjlh...",
"....hll.........................",
"....kdf......af###h.............",
"....kd......hbbk#ii#i...........",
"....kl.....#kkdddd##lh..........",
"....hmh...lkkkddddddldh.........",
".....kma.fjkkdddddddddka........",
".....fdhhhjkddddgggddddh........",
".......hljjkddddgggddddb........",
".........jkkkdddgggddddl........",
".........jjkkkddddgddddklc......",
".........hkkkkdddddddddhhkha....",
".........fjkkdddddddddka.fdl....",
"..........lkkddkkdkdkd#...hlh...",
"...........bjkkkkkkkkl.....dd...",
"............ljkkkkjkl......kl...",
".............fhjjjhf......fdd...",
"..........................llh...",
"....flkh.................lkdf...",
"...fjkjkl.............fhkkdh....",
"...hkkhklf.eacmlkdlkldldlkh.....",
"...hjklklc.efclkldlkdkdlh.......",
"...fjkkkl.......................",
"....fbjh........................",
"................................"
};
