/* XPM */
static char *s_icon3[] = {
/* width height num_colors chars_per_pixel */
"    32    32       15            1",
/* colors */
". c None",
"# c #78706b",
"a c #a3b1d7",
"b c #5a5357",
"c c #717fca",
"d c #2a218b",
"e c #cde1f9",
"f c #929ed3",
"g c #311fb3",
"h c #6f76a0",
"i c #9f8762",
"j c #25244a",
"k c #29256f",
"l c #51518c",
"m c #4b51b1",
/* pixels */
"................................",
"................................",
".........................hklf...",
"........................hjkkkf..",
"........hlddlkldldldlmcahkdhkh..",
"......hkkdkjkjkjjkjkjklcljkkkh..",
".....hdkkhf.............hjjkjf..",
"....fkkl.................hjbf...",
"....hdl.........................",
"....kdf......ah###cf............",
"....kl......#b#####dl...........",
"....kl.....llb#ii#hddl..........",
"....hmh...bkkdl###hhgll.........",
".....kma.fjkkddggmdmmbba........",
".....fkhf#jkkdddgggggbbh........",
".......hdjjkkddgggggglb#........",
".........jjkkdddggggddb#........",
".........jjkkdddggggddlblc......",
".........hjkkddddggdddkhhlla....",
".........fjjkkddddggdd#a.fkm....",
"..........bjjkkdddddkk#...hlh...",
"...........ljjkkkkkdkl.....dd...",
"............bjjjjkkjl......jl...",
".............fhjjjhf......fkd...",
"..........................lkh...",
"....fljh.................lkdf...",
"...fjkkkh.............fhkddh....",
"...hjkmklfhdkdkdkldkldldlkh.....",
"...hkklkhchdldklkklkdkdlh.......",
"...fjkkkl.......................",
"....fbjh........................",
"................................"
};
