/* XPM */
static char *s_icon9[] = {
/* width height num_colors chars_per_pixel */
"    32    32       15            1",
/* colors */
". c None",
"# c #78706b",
"a c #a3b1d7",
"b c #5a5357",
"c c #717fca",
"d c #2a218b",
"e c #cde1f9",
"f c #929ed3",
"g c #311fb3",
"h c #6f76a0",
"i c #9f8762",
"j c #25244a",
"k c #29256f",
"l c #51518c",
"m c #4b51b1",
/* pixels */
"................................",
"................................",
".........................hjlf...",
"........................bjkkkf..",
"........hlmc.eeefhmdlllmkjdckh..",
"......ckkdlhhfahhdkkkkkkjjjkkh..",
".....hkkkhf.............ljjjjf..",
"....fkkl.................hjbf...",
"....hdl.........................",
"....klf......afblbcf............",
"....kd......##lddkkkl...........",
"....kl.....##ldddddddl..........",
"....hmh...###lddddddddl.........",
".....dhf.f##hddddddddddf........",
".....fkhfib#mddddggddddh........",
".......hdlbldddggggddddd........",
".........bbklddgggggdddd........",
".........jblldl#mmgggddklc......",
".........hkbblmhhgmgddkhhkha....",
".........fjkldl#i#lgddkf.fkm....",
"..........bjjkiiii#ddkl...hlh...",
"...........ljkb#llkkkl.....kd...",
"............ljjjkkkkl......kl...",
".............f#jjjhf......fkd...",
"..........................lkh...",
"....fbjh.................ldlf...",
"...fjkkkl.............fhkdkh....",
"...hjkhkkkdkdkdcc.e.achldkh.....",
"...hjdlkjkdkdlkhca..fhmlh.......",
"...fjjjjl.......................",
"....fbjh........................",
"................................"
};
