/* XPM */
static char *s_icon6[] = {
/* width height num_colors chars_per_pixel */
"    32    32       16            1",
/* colors */
". c None",
"# c #78706b",
"a c #a3b1d7",
"b c #5a5357",
"c c #717fca",
"d c #2a218b",
"e c #b5c0d1",
"f c #cde1f9",
"g c #929ed3",
"h c #311fb3",
"i c #6f76a0",
"j c #9f8762",
"k c #25244a",
"l c #29256f",
"m c #51518c",
"n c #4b51b1",
/* pixels */
"................................",
"................................",
".........................ikmg...",
"........................bklllg..",
"........imddmlmdic.ff.cnlkmili..",
"......ildllklkkllicggcilkkklli..",
".....idllig.............mkkkkge.",
"....gllm.................ikbge..",
"....idm.........................",
"....lmg......gi###gae...........",
"....ld......immddm###...........",
"....lm.....mlldddlldmi..........",
"....ini...mlldldddddldm.........",
".....lna.gkllddddddddddg........",
".....gmicilllddddhhddddi........",
"......aimkllldddhhhddddd........",
"........akllddddhhhddddd........",
".........kkldddddddhdddlmc......",
".........ikddddddddddddiimma....",
".........gklddddddddddlg.gdm....",
"..........bblddddlllllm...ini...",
"...........#bblddllllm.....md...",
"............#bklllllm......ld...",
".............aikkkige.....gld...",
"...................e......mli...",
"....gbki.................mlmg...",
"...gklllm.............gilldi....",
"...iklillmng.facmlmlmdmdmli.....",
"...iklmlkdig..gcmdmldldmi.......",
"...gklkkm.......................",
"...egbki........................",
"....e..........................."
};
