/* XPM */
static char *s_icon8[] = {
/* width height num_colors chars_per_pixel */
"    32    32       16            1",
/* colors */
". c None",
"# c #78706b",
"a c #a3b1d7",
"b c #5a5357",
"c c #717fca",
"d c #2a218b",
"e c #b5c0d1",
"f c #cde1f9",
"g c #929ed3",
"h c #311fb3",
"i c #6f76a0",
"j c #9f8762",
"k c #25244a",
"l c #29256f",
"m c #51518c",
"n c #4b51b1",
/* pixels */
"................................",
"................................",
".........................ikmg...",
"........................bklllg..",
"........imddic.ff.gcdmmmlkdili..",
"......ildlllmmcgaccdllllkkklli..",
".....idllige......e.....mkkkkge.",
"....gllm.................ikbce..",
"....idm.........................",
"....ldg......ag#mbig............",
"....lm......##llddddn...........",
"....lm.....i#ddddddddne.........",
"....ini...##mldddddddln.........",
".....lng.gbbdddddhdddddg........",
".....gligj#hddddhhhddddi........",
".......idbmllddhhhhddddd........",
".........#lllddhhhhddddd........",
".........klldddhhhhhdddlmce.....",
".........ilbd#mmdhhhddliimma....",
".........gkbdmimnhhddllg.glm....",
"..........bll#jj#ddddlm...imi...",
"...........mk##j#bddlm.....dd...",
"............bkklllllm......lm...",
".............gikkkige.....gld...",
"..............e....e......mli...",
"....gbki.................mlmg...",
"...gklllm.............gilldi....",
"...iklilkdldlnc.f.gcmdmdmli.....",
"...iklmllldldmca..gindlmi.......",
"...gkklkm.......................",
"...egbkie.......................",
"................................"
};
