/* XPM */
static char * toolbar_back_1_xpm[] = {
"24 24 5 1",
" 	c None",
"X	c #000000000000",
"o	c #404040404040",
"O	c #808080808080",
"+	c #BFBFBFBFBFBF",
"                        ",
"                        ",
"                   XXX  ",
"                 XXooX  ",
"               XXoooXX  ",
"             XXoooOoX   ",
"           XXoooOOOoX   ",
"         XXoooOOOOoXX   ",
"       XXoooOOOO+OoX    ",
"     XXoooOOOO++OOoX    ",
"   XXoooOOOO++++OOoX    ",
"  XoooOOOO++++++OOoX    ",
"  XoooOOOO++++++OOoX    ",
"   XXoooOOOO++++OOoX    ",
"     XXoooOOOO++OOoX    ",
"       XXoooOOOO+OoX    ",
"         XXoooOOOOoXX   ",
"           XXoooOOOoX   ",
"             XXoooOoX   ",
"               XXoooXX  ",
"                 XXooX  ",
"                   XXX  ",
"                        ",
"                        "};
