/* XPM */
static char * toolbar_ftp_put_1_xpm[] = {
"24 24 5 1",
" 	c None",
".	c #000000000000",
"X	c #FFFFFFFFFFFF",
"o	c #33336666FFFF",
"R	c #FFFFFFFF0000",
"           .            ",
"          .R.           ",
"         .RRR.          ",
"         .RRR.          ",
"        .RRRRR.         ",
"       ...RRR...        ",
"         .RRR.          ",
"         .RRR.          ",
"        ..RRR..         ",
"       .X.RRR.o.        ",
"      .XX.RRR.oo.       ",
"     .XXX.RRR.ooo.      ",
"    .XXXX.....oooo.     ",
"   ..XXXXXX.ooooooo.    ",
"  .oo.XXXX.oooo..ooo.   ",
"   .oo.XX.oooo.XX.o.    ",
"    .oo..oooo...XX.     ",
"     .oooooo......      ",
"      .oooo......       ",
"       .ooo.....        ",
"        .ooo...         ",
"         .ooo.          ",
"          .o.           ",
"           .            "};
