/* XPM */
static char * toolbar_ftp_mkdir_1_xpm[] = {
"24 24 5 1",
" 	c None",
".	c #000000000000",
"B	c #00000000FFFF",
"R	c #FFFF00000000",
"W	c #FFFFFFFFFFFF",
"    ....                ",
"    .RR.                ",
"  ...RR...              ",
"  .RRRRRR.              ",
"  .RRRRRR.              ",
"  ...RR...              ",
"    .RR.                ",
"    ....                ",
"                 ....   ",
"                .WWWW.  ",
"  ...............WWWW.  ",
"  .BBBBBBBBBBBBBBBBBB.  ",
"  .BBBBBBBBBBBBBBBBBB.  ",
"  .BBBBBBBBBBBBBBBBBB.  ",
"  .BBBBBBBBBBBBBBBBBB.  ",
"  .BBBBBBBBBBBBBBBBBB.  ",
"  .BBBBBBBBBBBBBBBBBB.  ",
"  .BBBBBBBBBBBBBBBBBB.  ",
"  .BBBBBBBBBBBBBBBBBB.  ",
"  .BBBBBBBBBBBBBBBBBB.  ",
"  .BBBBBBBBBBBBBBBBBB.  ",
"  ....................  ",
"                        ",
"                        "};
