/* XPM */
static char *toolbar_stop_xpm[] = {
"    24    24        4            1",
/* colors */
"b c None",
". c None",
"# c #cc0000",
"a c #ffffff",
/* pixels */
"bbbbbbbb........bbbbbbbb",
"bbbbbbb.########.bbbbbbb",
"bbbbbb.##########.bbbbbb",
"bbbbb.############.bbbbb",
"bbbb.##############.bbbb",
"bbb.################.bbb",
"bb.##################.bb",
"b.####################.b",
".##aa#aaaaa##aa###aaa##.",
".#a#####a###a##a##a##a#.",
".#a#####a###a##a##a##a#.",
".##a####a###a##a##a##a#.",
".###a###a###a##a##aaa##.",
".###a###a###a##a##a####.",
".###a###a###a##a##a####.",
".#aa####a####aa###a####.",
"b.####################.b",
"bb.##################.bb",
"bbb.################.bbb",
"bbbb.##############.bbbb",
"bbbbb.############.bbbbb",
"bbbbbb.##########.bbbbbb",
"bbbbbbb.########.bbbbbbb",
"bbbbbbbb........bbbbbbbb"
};
