/* XPM */
static char * xm_error_xpm[] = {
"20 20 2 1",
" 	c None",
".	c #FFFF00000000",
"                    ",
"      ......        ",
"    .... . ...      ",
"   .. . . . . .     ",
"  .. .       . .    ",
" .. . .       . .   ",
" . . . .       . .  ",
" ..   . .      ..   ",
" . .   . .     . .  ",
" ..     . .    ..   ",
" . .     . .   . .  ",
" ..       . .  ..   ",
" . .       . ... .  ",
"  . .       . . .   ",
"   . .      .. .    ",
"    . ....... .     ",
"     . . . . .      ",
"      . . . .       ",
"                    ",
"                    "};
