/* XPM */
static char * xm_information_xpm[] = {
"11 24 2 1",
" 	c None",
".	c #00000000FFFF",
"           ",
"   ....    ",
"  . . .    ",
"  .. .     ",
"  . . .    ",
"   . .     ",
"           ",
"           ",
" ......    ",
" . . .     ",
"  ... .    ",
"   . .     ",
"   .. .    ",
"   . .     ",
"   .. .    ",
"   . .     ",
"   .. .    ",
"   . .     ",
"   .. .    ",
" ... . ..  ",
" .. . . .  ",
" . . . .   ",
"           ",
"           "};
