/* XPM */
static char * xm_question_xpm[] = {
"22 22 4 1",
"       c None",
".      c #000000000000",
"*      c #666666666666",
"y      c #FFFFFFFF0000",
"    ..........        ",
"   ..**********       ",
"  ..************      ",
" ..***yyyyyyy****     ",
" .***yyyyyyyyy****    ",
" .***yyyyyyyyy***     ",
" .***yyy***yyy****    ",
" .***yyy***yyy*****   ",
" .***yyy***yyy******  ",
" .****y***yyyy******* ",
" .*******yyyyy***.... ",
" ..*****yyyyy****     ",
"  ..****yyyy******    ",
"   ..***yyy******     ",
"    ..**yyy*****      ",
"     .***********     ",
"     .**********      ",
"     .**yyy**         ",
"     .**yyy***        ",
"     .**yyy**         ",
"    ..********        ",
"    .**********       "};
