/* XPM */
static char * xm_warning_xpm[] = {
"8 21 2 1",
" 	c None",
".	c #FFFFFFFF0000",
"        ",
"  ...   ",
" .....  ",
" .....  ",
" .....  ",
" .....  ",
" .....  ",
" .....  ",
" .....  ",
" .....  ",
"  ...   ",
"  ...   ",
"  ...   ",
"  ...   ",
"        ",
"  ...   ",
" .....  ",
" .....  ",
"  ...   ",
"        ",
"        "};
